<?xml version="1.0" encoding="iso-8859-1"?>
<!-- Generator: Adobe Illustrator 22.1.0, SVG Export Plug-In . SVG Version: 6.00 Build 0)  -->
<svg xmlns="http://www.w3.org/2000/svg" xmlns:xlink="http://www.w3.org/1999/xlink" version="1.1" id="Layer_1_1_" x="0px" y="0px" viewBox="0 0 64 64" style="enable-background:new 0 0 64 64;" xml:space="preserve" width="512" height="512">
<linearGradient id="SVGID_1_" gradientUnits="userSpaceOnUse" x1="32" y1="63" x2="32" y2="1">
	<stop offset="0" style="stop-color:#9F2FFF"/>
	<stop offset="1" style="stop-color:#0BB1D3"/>
</linearGradient>
<path style="fill:url(#SVGID_1_);" d="M36,7h-8V5h8V7z M40,5h-2v2h2V5z M26,5h-2v2h2V5z M29,59h6v-2h-6V59z M50,21h13v26H52v-2h9V23  H35v22h15v13c0,2.757-2.243,5-5,5H19c-2.757,0-5-2.243-5-5V41H1V17h11v2H3v18.238l5.671-6.806C10.489,28.251,13.161,27,16,27  s5.511,1.251,7.329,3.433L29,37.238V19H14V6c0-2.757,2.243-5,5-5h26c2.757,0,5,2.243,5,5V21z M16,6v3h32V6c0-1.654-1.346-3-3-3H19  C17.346,3,16,4.346,16,6z M16,17h2v-4h28v8h2V11H16V17z M4.135,39h23.73l-6.073-7.287C20.355,29.989,18.244,29,16,29  s-4.355,0.989-5.792,2.713L4.135,39z M48,58v-3H16v3c0,1.654,1.346,3,3,3h26C46.654,61,48,59.654,48,58z M48,47h-2v4H18V41h-2v12h32  V47z M44,21v-6H20v2h11v24H20v8h24v-2H33V21H44z M45,36.219v-0.24c-1.246-0.939-2-2.416-2-3.979v-2c0-1.397,0.591-2.741,1.622-3.686  c1.029-0.945,2.422-1.416,3.822-1.294C50.999,25.241,53,27.52,53,30.208V32c0,1.563-0.754,3.041-2,3.979v0.24l4.332,1.083  C57.492,37.842,59,39.774,59,42v1H37v-1c0-2.226,1.508-4.158,3.668-4.698L45,36.219z M47,34.87v2.911l-5.847,1.462  c-0.928,0.232-1.652,0.902-1.973,1.757h17.639c-0.321-0.855-1.044-1.525-1.973-1.757L49,37.781V34.87l0.497-0.289  C50.438,34.033,51,33.068,51,32v-1.792c0-1.659-1.199-3.062-2.729-3.196c-0.859-0.077-1.671,0.202-2.298,0.776  C45.355,28.355,45,29.162,45,30v2c0,1.068,0.562,2.033,1.503,2.581L47,34.87z M8,21c1.654,0,3,1.346,3,3s-1.346,3-3,3s-3-1.346-3-3  S6.346,21,8,21z M8,23c-0.551,0-1,0.449-1,1s0.449,1,1,1s1-0.449,1-1S8.551,23,8,23z"/>
</svg>
